<?xml version="1.0" encoding="UTF-8" standalone="no"?>
<!-- Created with Inkscape (http://www.inkscape.org/) -->

<svg
   xmlns:dc="http://purl.org/dc/elements/1.1/"
   xmlns:cc="http://creativecommons.org/ns#"
   xmlns:rdf="http://www.w3.org/1999/02/22-rdf-syntax-ns#"
   xmlns:svg="http://www.w3.org/2000/svg"
   xmlns="http://www.w3.org/2000/svg"
   xmlns:sodipodi="http://sodipodi.sourceforge.net/DTD/sodipodi-0.dtd"
   xmlns:inkscape="http://www.inkscape.org/namespaces/inkscape"
   width="500"
   height="150"
   viewBox="0 0 500 150"
   id="svg2"
   version="1.1"
   inkscape:version="0.91 r13725"
   sodipodi:docname="logo.svg">
  <defs
     id="defs4">
    <filter
       style="color-interpolation-filters:sRGB;"
       inkscape:label="Out of Focus"
       id="filter3463">
      <feFlood
         flood-opacity="1"
         flood-color="rgb(255,255,255)"
         result="flood"
         id="feFlood3465" />
      <feColorMatrix
         in="SourceGraphic"
         values="1 0 0 0 0 0 1 0 0 0 0 0 1 0 0 -0.2125 -0.7154 -0.0721 1 0 "
         result="colormatrix1"
         id="feColorMatrix3467" />
      <feGaussianBlur
         in="colormatrix1"
         stdDeviation="10.01 8.43"
         result="blur"
         id="feGaussianBlur3469" />
      <feColorMatrix
         in="blur"
         values="1 0 0 0 0 0 1 0 0 0 0 0 1 0 0 0 0 0 7.37 -2.11 "
         result="colormatrix2"
         id="feColorMatrix3471" />
      <feBlend
         in="colormatrix2"
         in2="flood"
         mode="normal"
         result="blend"
         id="feBlend3473" />
      <feComposite
         in="blend"
         in2="blend"
         operator="arithmetic"
         k2="0.57"
         result="composite1"
         id="feComposite3475" />
      <feComposite
         in2="SourceGraphic"
         operator="in"
         id="feComposite3477" />
    </filter>
  </defs>
  <sodipodi:namedview
     id="base"
     pagecolor="#ffffff"
     bordercolor="#666666"
     borderopacity="1.0"
     inkscape:pageopacity="0.0"
     inkscape:pageshadow="2"
     inkscape:zoom="0.98994949"
     inkscape:cx="331.86062"
     inkscape:cy="27.152442"
     inkscape:document-units="px"
     inkscape:current-layer="text3336"
     showgrid="false"
     units="px"
     inkscape:window-width="1920"
     inkscape:window-height="1056"
     inkscape:window-x="1366"
     inkscape:window-y="0"
     inkscape:window-maximized="1" />
  <metadata
     id="metadata7">
    <rdf:RDF>
      <cc:Work
         rdf:about="">
        <dc:format>image/svg+xml</dc:format>
        <dc:type
           rdf:resource="http://purl.org/dc/dcmitype/StillImage" />
        <dc:title></dc:title>
      </cc:Work>
    </rdf:RDF>
  </metadata>
  <g
     inkscape:label="Camada 1"
     inkscape:groupmode="layer"
     id="layer1"
     transform="translate(0,-902.36216)">
    <g
       id="g3373"
       style="font-style:normal;font-weight:normal;font-size:121.25411224px;line-height:125%;font-family:sans-serif;letter-spacing:0px;word-spacing:0px;fill:#00002b;fill-opacity:1;stroke:none;stroke-width:1px;stroke-linecap:butt;stroke-linejoin:miter;stroke-opacity:1"
       transform="matrix(1.1250413,0,0,0.88885627,445.77675,275.69042)">
      <path
         id="path3375"
         style="font-style:normal;font-variant:normal;font-weight:normal;font-stretch:normal;font-family:'New Yorker';-inkscape-font-specification:'New Yorker';fill:#00002b"
         d="m 19.18523,1106.6922 0,-54.2032 q 0,-7.0455 -4.381253,-16.4889 -4.351649,-9.3546 -10.3018626,-9.3546 l -0.9472977,0 0,-2.6642 24.8369633,0 22.320703,62.0776 19.893253,-62.0776 25.073787,0 0,2.6642 -0.947298,0 q -7.045527,0 -8.851313,5.0918 -1.835389,5.2101 -1.835389,13.1141 l 0,73.7116 8.969725,0 0,2.5459 -34.783589,0 0,-2.5459 8.969725,0 0,-74.6885 -21.935863,70.0704 -23.06078,-56.749 0,49.2299 q 0,5.3581 2.190626,8.1408 2.190626,2.9011 7.045527,3.7596 l 1.45055,0.2368 0,2.5459 -23.6528408,0 0,-2.5459 1.5689618,-0.2368 q 8.377665,-1.4506 8.377665,-11.634 z"
         inkscape:connector-curvature="0" />
      <path
         id="path3377"
         style="fill:#00002b"
         d="m 125.96345,1121.849 0.23682,-0.7401 -18.17627,-37.2111 -3.16753,0 0,-1.8353 23.88967,0 0,1.8353 -4.23324,0 9.94663,22.0543 5.92061,-11.634 q 2.42745,-5.8318 2.42745,-7.0455 0,-0.7105 0,-0.9769 -0.11842,-0.2368 -0.23683,-0.4737 -0.9769,-2.1906 -4.97331,-2.1906 l -0.9769,0 0,-1.5689 15.15676,0 0,1.5689 -0.71047,0 q -1.59857,0 -3.52276,1.9538 -1.56897,1.569 -3.28594,4.9733 -1.68738,3.5228 -3.13793,6.6607 l -12.72931,24.8666 -0.74008,0.9769 q -6.42386,11.2491 -10.06504,15.2752 -3.75958,3.9964 -12.49249,5.0917 l 0,-15.8969 1.71698,0 0,2.7827 q 0,6.6903 3.49316,6.6903 3.40435,0 7.756,-4.1444 4.38125,-4.1148 7.90402,-11.0123 z"
         inkscape:connector-curvature="0" />
      <path
         id="path3379"
         style="font-style:normal;font-variant:normal;font-weight:normal;font-stretch:normal;font-family:'New Yorker';-inkscape-font-specification:'New Yorker';fill:#00002b"
         d="m 161.48712,1023.9813 34.57637,0 0,2.6642 -8.7329,0 0,91.9175 13.43978,0 q 7.28235,0 11.54519,-2.1906 4.11483,-2.161 4.11483,-10.8939 l 0,-5.9502 2.66427,0 0,24.1264 -2.66427,0 0,-2.5458 -54.94327,0 0,-2.5459 8.96973,0 0,-91.9175 -8.96973,0 0,-2.6642 z"
         inkscape:connector-curvature="0" />
      <path
         id="path3381"
         style="fill:#00002b"
         d="m 272.29135,1102.1925 q 0,5.7134 -3.16752,10.0651 -3.13793,4.3516 -8.37767,6.7791 -5.32855,2.5458 -11.13075,2.5458 -8.7329,0 -15.42319,-5.4469 -6.66069,-5.3286 -6.66069,-13.7062 0,-7.756 6.66069,-14.0615 6.57188,-6.3054 15.15677,-6.3054 6.18703,0 11.39717,2.5458 5.23974,2.5459 8.37767,7.164 3.16752,4.5884 3.16752,10.4202 z m -22.94236,-18.5611 q -4.23324,0 -6.15744,5.7134 -2.07221,5.6838 -2.07221,12.1077 0,6.6902 2.07221,12.4924 1.9242,5.9503 6.15744,5.9503 8.7329,0 8.7329,-18.4427 0,-7.9929 -1.56896,-12.9662 -1.68738,-4.8549 -7.16394,-4.8549 z"
         inkscape:connector-curvature="0" />
      <path
         id="path3383"
         style="fill:#00002b"
         d="m 312.10745,1107.4027 0,-11.8709 q 0,-3.878 -3.04912,-7.1639 -2.78268,-2.7827 -6.42386,-2.7827 -0.47365,0 -0.9769,0 -3.49316,0.1184 -5.21014,5.8022 -1.80578,5.7134 -1.80578,11.2788 0,6.3054 2.30903,11.5452 1.9242,4.5884 6.06863,4.5884 0.59206,0 1.33214,-0.1184 3.75958,-0.7104 5.8022,-3.9964 1.9538,-3.1675 1.9538,-7.2823 z m 13.70621,-18.2947 q -0.38484,2.2794 -0.74007,5.6838 0.23682,1.2137 0.23682,3.7596 l 0,28.9813 q 0,4.4997 -2.9011,7.9929 -3.01951,3.6412 -7.63759,5.595 -4.61807,2.0426 -8.85131,2.0426 -3.16753,0 -5.95022,-0.9473 -2.90109,-0.8585 -9.20655,-3.7596 l -0.74007,-0.2368 0,5.2101 -1.80579,0 0,-15.8969 1.80579,0 0.50325,1.569 q 1.21373,5.7134 4.97331,8.6145 3.61158,3.0491 8.11124,3.0491 5.09173,0 8.25925,-2.5458 l 0,-21.6103 q -2.9307,2.1906 -4.76609,3.0491 -1.80579,0.8585 -5.92061,1.2138 -1.21373,0.1184 -2.30904,0.1184 -7.756,0 -12.49249,-4.4997 -5.32855,-4.9733 -5.56537,-12.9661 0.23682,-0.4737 0.23682,-0.5921 0.23683,-4.6181 1.9242,-8.3777 1.71698,-3.7595 4.61808,-6.4238 2.81229,-2.5459 6.57188,-3.9964 3.01951,-1.0953 6.54227,-1.0953 0.59206,0 1.21373,0 4.35165,0.1184 9.20655,3.0195 l 1.45055,0.74 1.45055,-4.9733 q 6.06862,2.4275 13.23256,2.7827 -0.38484,1.4506 -0.74008,2.3091 -0.35523,0.8584 -0.71047,2.1906 z"
         inkscape:connector-curvature="0" />
      <path
         id="path3385"
         style="fill:#00002b"
         d="m 379.57282,1102.1925 q 0,5.7134 -3.16753,10.0651 -3.13792,4.3516 -8.37766,6.7791 -5.32855,2.5458 -11.13075,2.5458 -8.7329,0 -15.42319,-5.4469 -6.66069,-5.3286 -6.66069,-13.7062 0,-7.756 6.66069,-14.0615 6.57187,-6.3054 15.15676,-6.3054 6.18704,0 11.39718,2.5458 5.23974,2.5459 8.37766,7.164 3.16753,4.5884 3.16753,10.4202 z m -22.94237,-18.5611 q -4.23324,0 -6.15744,5.7134 -2.07221,5.6838 -2.07221,12.1077 0,6.6902 2.07221,12.4924 1.9242,5.9503 6.15744,5.9503 8.7329,0 8.7329,-18.4427 0,-7.9929 -1.56896,-12.9662 -1.68738,-4.8549 -7.16394,-4.8549 z"
         inkscape:connector-curvature="0" />
      <path
         id="path3387"
         style="fill:#00002b"
         d="m 401.18306,1026.6455 q 0,0.3849 0,0.7401 0,4.7365 -5.44696,13.203 l 0,-7.8744 q -0.11841,0 -0.23682,0 -2.54587,0 -4.49967,-1.8058 -2.16102,-1.8354 -2.16102,-4.2629 0,-2.4274 1.9242,-4.3516 1.83539,-1.8354 3.99641,-1.8354 0.11841,0 0.23682,0 2.81229,0.1184 4.49967,1.8354 1.68737,1.6874 1.68737,4.3516 z"
         inkscape:connector-curvature="0" />
      <path
         id="path3389"
         style="font-style:normal;font-variant:normal;font-weight:normal;font-stretch:normal;font-family:'New Yorker';-inkscape-font-specification:'New Yorker';fill:#00002b"
         d="m 412.07697,1117.8229 -0.47365,-0.2368 0,4.4997 -1.9538,0 0,-15.66 1.9538,0 0,1.7169 q 0,4.8549 3.37475,8.1113 3.28593,3.4043 7.51917,3.6412 5.47657,-1.0954 5.47657,-4.2333 0,-3.6412 -2.81229,-5.7134 -2.9011,-2.0426 -9.08814,-5.6838 -4.97331,-2.9307 -5.44696,-9.7098 0.23682,-5.4469 4.35165,-9.2065 3.64117,-3.2859 9.47297,-3.2859 0.71048,0 1.56896,0 3.28594,0.4736 7.75601,2.7826 l 0.9769,0.5033 0,-3.9964 1.9538,0 0,13.943 -1.9538,0 -0.23683,-3.0491 q -0.35524,-3.9964 -3.40435,-6.0686 -2.78269,-1.8058 -6.06863,-1.8058 -0.35523,0 -0.71047,0 -2.19063,0 -3.64118,1.2137 -1.45054,1.3322 -1.56896,3.0195 0.47365,2.1907 2.27944,3.878 1.71698,1.717 3.28594,2.5755 1.56896,0.8289 5.09172,2.6347 8.61449,3.9076 8.61449,11.0419 0,3.4044 -2.07221,6.4239 -2.04261,3.0491 -5.56538,4.8845 -3.52276,1.8058 -7.16394,1.8058 -5.92061,0 -11.51558,-4.0261 z"
         inkscape:connector-curvature="0" />
    </g>
    <g
       id="g3391"
       style="font-style:normal;font-weight:normal;font-size:121.25411224px;line-height:125%;font-family:sans-serif;letter-spacing:0px;word-spacing:0px;fill:#241c22;fill-opacity:1;stroke:#241c22;stroke-width:1px;stroke-linecap:butt;stroke-linejoin:miter;stroke-opacity:1;filter:url(#filter3463)"
       transform="matrix(1.0878725,0,0,0.75742343,17.888467,160.59388)">
      <path
         inkscape:connector-curvature="0"
         id="path3393"
         style="font-style:normal;font-variant:normal;font-weight:normal;font-stretch:normal;font-family:'New Yorker';-inkscape-font-specification:'New Yorker';fill:#241c22;stroke:#241c22"
         d="m 19.18523,1106.6922 0,-54.2032 q 0,-7.0455 -4.381253,-16.4889 -4.351649,-9.3546 -10.3018626,-9.3546 l -0.9472977,0 0,-2.6642 24.8369633,0 22.320703,62.0776 19.893253,-62.0776 25.073787,0 0,2.6642 -0.947298,0 q -7.045527,0 -8.851313,5.0918 -1.835389,5.2101 -1.835389,13.1141 l 0,73.7116 8.969725,0 0,2.5459 -34.783589,0 0,-2.5459 8.969725,0 0,-74.6885 -21.935863,70.0704 -23.06078,-56.749 0,49.2299 q 0,5.3581 2.190626,8.1408 2.190626,2.9011 7.045527,3.7596 l 1.45055,0.2368 0,2.5459 -23.6528408,0 0,-2.5459 1.5689618,-0.2368 q 8.377665,-1.4506 8.377665,-11.634 z" />
      <path
         inkscape:connector-curvature="0"
         id="path3395"
         style="fill:#241c22;stroke:#241c22"
         d="m 125.96345,1121.849 0.23682,-0.7401 -18.17627,-37.2111 -3.16753,0 0,-1.8353 23.88967,0 0,1.8353 -4.23324,0 9.94663,22.0543 5.92061,-11.634 q 2.42745,-5.8318 2.42745,-7.0455 0,-0.7105 0,-0.9769 -0.11842,-0.2368 -0.23683,-0.4737 -0.9769,-2.1906 -4.97331,-2.1906 l -0.9769,0 0,-1.5689 15.15676,0 0,1.5689 -0.71047,0 q -1.59857,0 -3.52276,1.9538 -1.56897,1.569 -3.28594,4.9733 -1.68738,3.5228 -3.13793,6.6607 l -12.72931,24.8666 -0.74008,0.9769 q -6.42386,11.2491 -10.06504,15.2752 -3.75958,3.9964 -12.49249,5.0917 l 0,-15.8969 1.71698,0 0,2.7827 q 0,6.6903 3.49316,6.6903 3.40435,0 7.756,-4.1444 4.38125,-4.1148 7.90402,-11.0123 z" />
      <path
         inkscape:connector-curvature="0"
         id="path3397"
         style="font-style:normal;font-variant:normal;font-weight:normal;font-stretch:normal;font-family:'New Yorker';-inkscape-font-specification:'New Yorker';fill:#241c22;stroke:#241c22"
         d="m 161.48712,1023.9813 34.57637,0 0,2.6642 -8.7329,0 0,91.9175 13.43978,0 q 7.28235,0 11.54519,-2.1906 4.11483,-2.161 4.11483,-10.8939 l 0,-5.9502 2.66427,0 0,24.1264 -2.66427,0 0,-2.5458 -54.94327,0 0,-2.5459 8.96973,0 0,-91.9175 -8.96973,0 0,-2.6642 z" />
      <path
         inkscape:connector-curvature="0"
         id="path3399"
         style="fill:#241c22;stroke:#241c22"
         d="m 272.29135,1102.1925 q 0,5.7134 -3.16752,10.0651 -3.13793,4.3516 -8.37767,6.7791 -5.32855,2.5458 -11.13075,2.5458 -8.7329,0 -15.42319,-5.4469 -6.66069,-5.3286 -6.66069,-13.7062 0,-7.756 6.66069,-14.0615 6.57188,-6.3054 15.15677,-6.3054 6.18703,0 11.39717,2.5458 5.23974,2.5459 8.37767,7.164 3.16752,4.5884 3.16752,10.4202 z m -22.94236,-18.5611 q -4.23324,0 -6.15744,5.7134 -2.07221,5.6838 -2.07221,12.1077 0,6.6902 2.07221,12.4924 1.9242,5.9503 6.15744,5.9503 8.7329,0 8.7329,-18.4427 0,-7.9929 -1.56896,-12.9662 -1.68738,-4.8549 -7.16394,-4.8549 z" />
      <path
         inkscape:connector-curvature="0"
         id="path3401"
         style="fill:#241c22;stroke:#241c22"
         d="m 312.10745,1107.4027 0,-11.8709 q 0,-3.878 -3.04912,-7.1639 -2.78268,-2.7827 -6.42386,-2.7827 -0.47365,0 -0.9769,0 -3.49316,0.1184 -5.21014,5.8022 -1.80578,5.7134 -1.80578,11.2788 0,6.3054 2.30903,11.5452 1.9242,4.5884 6.06863,4.5884 0.59206,0 1.33214,-0.1184 3.75958,-0.7104 5.8022,-3.9964 1.9538,-3.1675 1.9538,-7.2823 z m 13.70621,-18.2947 q -0.38484,2.2794 -0.74007,5.6838 0.23682,1.2137 0.23682,3.7596 l 0,28.9813 q 0,4.4997 -2.9011,7.9929 -3.01951,3.6412 -7.63759,5.595 -4.61807,2.0426 -8.85131,2.0426 -3.16753,0 -5.95022,-0.9473 -2.90109,-0.8585 -9.20655,-3.7596 l -0.74007,-0.2368 0,5.2101 -1.80579,0 0,-15.8969 1.80579,0 0.50325,1.569 q 1.21373,5.7134 4.97331,8.6145 3.61158,3.0491 8.11124,3.0491 5.09173,0 8.25925,-2.5458 l 0,-21.6103 q -2.9307,2.1906 -4.76609,3.0491 -1.80579,0.8585 -5.92061,1.2138 -1.21373,0.1184 -2.30904,0.1184 -7.756,0 -12.49249,-4.4997 -5.32855,-4.9733 -5.56537,-12.9661 0.23682,-0.4737 0.23682,-0.5921 0.23683,-4.6181 1.9242,-8.3777 1.71698,-3.7595 4.61808,-6.4238 2.81229,-2.5459 6.57188,-3.9964 3.01951,-1.0953 6.54227,-1.0953 0.59206,0 1.21373,0 4.35165,0.1184 9.20655,3.0195 l 1.45055,0.74 1.45055,-4.9733 q 6.06862,2.4275 13.23256,2.7827 -0.38484,1.4506 -0.74008,2.3091 -0.35523,0.8584 -0.71047,2.1906 z" />
      <path
         inkscape:connector-curvature="0"
         id="path3403"
         style="fill:#241c22;stroke:#241c22"
         d="m 379.57282,1102.1925 q 0,5.7134 -3.16753,10.0651 -3.13792,4.3516 -8.37766,6.7791 -5.32855,2.5458 -11.13075,2.5458 -8.7329,0 -15.42319,-5.4469 -6.66069,-5.3286 -6.66069,-13.7062 0,-7.756 6.66069,-14.0615 6.57187,-6.3054 15.15676,-6.3054 6.18704,0 11.39718,2.5458 5.23974,2.5459 8.37766,7.164 3.16753,4.5884 3.16753,10.4202 z m -22.94237,-18.5611 q -4.23324,0 -6.15744,5.7134 -2.07221,5.6838 -2.07221,12.1077 0,6.6902 2.07221,12.4924 1.9242,5.9503 6.15744,5.9503 8.7329,0 8.7329,-18.4427 0,-7.9929 -1.56896,-12.9662 -1.68738,-4.8549 -7.16394,-4.8549 z" />
      <path
         inkscape:connector-curvature="0"
         id="path3405"
         style="fill:#241c22;stroke:#241c22"
         d="m 401.18306,1026.6455 q 0,0.3849 0,0.7401 0,4.7365 -5.44696,13.203 l 0,-7.8744 q -0.11841,0 -0.23682,0 -2.54587,0 -4.49967,-1.8058 -2.16102,-1.8354 -2.16102,-4.2629 0,-2.4274 1.9242,-4.3516 1.83539,-1.8354 3.99641,-1.8354 0.11841,0 0.23682,0 2.81229,0.1184 4.49967,1.8354 1.68737,1.6874 1.68737,4.3516 z" />
      <path
         inkscape:connector-curvature="0"
         id="path3407"
         style="font-style:normal;font-variant:normal;font-weight:normal;font-stretch:normal;font-family:'New Yorker';-inkscape-font-specification:'New Yorker';fill:#241c22;stroke:#241c22"
         d="m 412.07697,1117.8229 -0.47365,-0.2368 0,4.4997 -1.9538,0 0,-15.66 1.9538,0 0,1.7169 q 0,4.8549 3.37475,8.1113 3.28593,3.4043 7.51917,3.6412 5.47657,-1.0954 5.47657,-4.2333 0,-3.6412 -2.81229,-5.7134 -2.9011,-2.0426 -9.08814,-5.6838 -4.97331,-2.9307 -5.44696,-9.7098 0.23682,-5.4469 4.35165,-9.2065 3.64117,-3.2859 9.47297,-3.2859 0.71048,0 1.56896,0 3.28594,0.4736 7.75601,2.7826 l 0.9769,0.5033 0,-3.9964 1.9538,0 0,13.943 -1.9538,0 -0.23683,-3.0491 q -0.35524,-3.9964 -3.40435,-6.0686 -2.78269,-1.8058 -6.06863,-1.8058 -0.35523,0 -0.71047,0 -2.19063,0 -3.64118,1.2137 -1.45054,1.3322 -1.56896,3.0195 0.47365,2.1907 2.27944,3.878 1.71698,1.717 3.28594,2.5755 1.56896,0.8289 5.09172,2.6347 8.61449,3.9076 8.61449,11.0419 0,3.4044 -2.07221,6.4239 -2.04261,3.0491 -5.56538,4.8845 -3.52276,1.8058 -7.16394,1.8058 -5.92061,0 -11.51558,-4.0261 z" />
    </g>
    <g
       transform="matrix(1.0878725,0,0,0.75742343,0.13212817,150.2842)"
       style="font-style:normal;font-weight:normal;font-size:121.25411224px;line-height:125%;font-family:sans-serif;letter-spacing:0px;word-spacing:0px;fill:#000000;fill-opacity:1;stroke:none;stroke-width:1px;stroke-linecap:butt;stroke-linejoin:miter;stroke-opacity:1"
       id="text3336">
      <path
         d="m 19.18523,1106.6922 0,-54.2032 q 0,-7.0455 -4.381253,-16.4889 -4.351649,-9.3546 -10.3018626,-9.3546 l -0.9472977,0 0,-2.6642 24.8369633,0 22.320703,62.0776 19.893253,-62.0776 25.073787,0 0,2.6642 -0.947298,0 q -7.045527,0 -8.851313,5.0918 -1.835389,5.2101 -1.835389,13.1141 l 0,73.7116 8.969725,0 0,2.5459 -34.783589,0 0,-2.5459 8.969725,0 0,-74.6885 -21.935863,70.0704 -23.06078,-56.749 0,49.2299 q 0,5.3581 2.190626,8.1408 2.190626,2.9011 7.045527,3.7596 l 1.45055,0.2368 0,2.5459 -23.6528408,0 0,-2.5459 1.5689618,-0.2368 q 8.377665,-1.4506 8.377665,-11.634 z"
         style="font-style:normal;font-variant:normal;font-weight:normal;font-stretch:normal;font-family:'New Yorker';-inkscape-font-specification:'New Yorker';fill:#d4aa00;stroke:#d4aa00"
         id="path3357"
         inkscape:connector-curvature="0" />
      <path
         d="m 125.96345,1121.849 0.23682,-0.7401 -18.17627,-37.2111 -3.16753,0 0,-1.8353 23.88967,0 0,1.8353 -4.23324,0 9.94663,22.0543 5.92061,-11.634 q 2.42745,-5.8318 2.42745,-7.0455 0,-0.7105 0,-0.9769 -0.11842,-0.2368 -0.23683,-0.4737 -0.9769,-2.1906 -4.97331,-2.1906 l -0.9769,0 0,-1.5689 15.15676,0 0,1.5689 -0.71047,0 q -1.59857,0 -3.52276,1.9538 -1.56897,1.569 -3.28594,4.9733 -1.68738,3.5228 -3.13793,6.6607 l -12.72931,24.8666 -0.74008,0.9769 q -6.42386,11.2491 -10.06504,15.2752 -3.75958,3.9964 -12.49249,5.0917 l 0,-15.8969 1.71698,0 0,2.7827 q 0,6.6903 3.49316,6.6903 3.40435,0 7.756,-4.1444 4.38125,-4.1148 7.90402,-11.0123 z"
         style="fill:#d4aa00;stroke:#d4aa00"
         id="path3359"
         inkscape:connector-curvature="0" />
      <path
         d="m 161.48712,1023.9813 34.57637,0 0,2.6642 -8.7329,0 0,91.9175 13.43978,0 q 7.28235,0 11.54519,-2.1906 4.11483,-2.161 4.11483,-10.8939 l 0,-5.9502 2.66427,0 0,24.1264 -2.66427,0 0,-2.5458 -54.94327,0 0,-2.5459 8.96973,0 0,-91.9175 -8.96973,0 0,-2.6642 z"
         style="font-style:normal;font-variant:normal;font-weight:normal;font-stretch:normal;font-family:'New Yorker';-inkscape-font-specification:'New Yorker';fill:#ff5555;stroke:#ff5555"
         id="path3361"
         inkscape:connector-curvature="0" />
      <path
         d="m 272.29135,1102.1925 q 0,5.7134 -3.16752,10.0651 -3.13793,4.3516 -8.37767,6.7791 -5.32855,2.5458 -11.13075,2.5458 -8.7329,0 -15.42319,-5.4469 -6.66069,-5.3286 -6.66069,-13.7062 0,-7.756 6.66069,-14.0615 6.57188,-6.3054 15.15677,-6.3054 6.18703,0 11.39717,2.5458 5.23974,2.5459 8.37767,7.164 3.16752,4.5884 3.16752,10.4202 z m -22.94236,-18.5611 q -4.23324,0 -6.15744,5.7134 -2.07221,5.6838 -2.07221,12.1077 0,6.6902 2.07221,12.4924 1.9242,5.9503 6.15744,5.9503 8.7329,0 8.7329,-18.4427 0,-7.9929 -1.56896,-12.9662 -1.68738,-4.8549 -7.16394,-4.8549 z"
         style="fill:#ff5555;stroke:#ff5555"
         id="path3363"
         inkscape:connector-curvature="0" />
      <path
         d="m 312.10745,1107.4027 0,-11.8709 q 0,-3.878 -3.04912,-7.1639 -2.78268,-2.7827 -6.42386,-2.7827 -0.47365,0 -0.9769,0 -3.49316,0.1184 -5.21014,5.8022 -1.80578,5.7134 -1.80578,11.2788 0,6.3054 2.30903,11.5452 1.9242,4.5884 6.06863,4.5884 0.59206,0 1.33214,-0.1184 3.75958,-0.7104 5.8022,-3.9964 1.9538,-3.1675 1.9538,-7.2823 z m 13.70621,-18.2947 q -0.38484,2.2794 -0.74007,5.6838 0.23682,1.2137 0.23682,3.7596 l 0,28.9813 q 0,4.4997 -2.9011,7.9929 -3.01951,3.6412 -7.63759,5.595 -4.61807,2.0426 -8.85131,2.0426 -3.16753,0 -5.95022,-0.9473 -2.90109,-0.8585 -9.20655,-3.7596 l -0.74007,-0.2368 0,5.2101 -1.80579,0 0,-15.8969 1.80579,0 0.50325,1.569 q 1.21373,5.7134 4.97331,8.6145 3.61158,3.0491 8.11124,3.0491 5.09173,0 8.25925,-2.5458 l 0,-21.6103 q -2.9307,2.1906 -4.76609,3.0491 -1.80579,0.8585 -5.92061,1.2138 -1.21373,0.1184 -2.30904,0.1184 -7.756,0 -12.49249,-4.4997 -5.32855,-4.9733 -5.56537,-12.9661 0.23682,-0.4737 0.23682,-0.5921 0.23683,-4.6181 1.9242,-8.3777 1.71698,-3.7595 4.61808,-6.4238 2.81229,-2.5459 6.57188,-3.9964 3.01951,-1.0953 6.54227,-1.0953 0.59206,0 1.21373,0 4.35165,0.1184 9.20655,3.0195 l 1.45055,0.74 1.45055,-4.9733 q 6.06862,2.4275 13.23256,2.7827 -0.38484,1.4506 -0.74008,2.3091 -0.35523,0.8584 -0.71047,2.1906 z"
         style="fill:#ff5555;stroke:#ff5555"
         id="path3365"
         inkscape:connector-curvature="0" />
      <path
         d="m 379.57282,1102.1925 q 0,5.7134 -3.16753,10.0651 -3.13792,4.3516 -8.37766,6.7791 -5.32855,2.5458 -11.13075,2.5458 -8.7329,0 -15.42319,-5.4469 -6.66069,-5.3286 -6.66069,-13.7062 0,-7.756 6.66069,-14.0615 6.57187,-6.3054 15.15676,-6.3054 6.18704,0 11.39718,2.5458 5.23974,2.5459 8.37766,7.164 3.16753,4.5884 3.16753,10.4202 z m -22.94237,-18.5611 q -4.23324,0 -6.15744,5.7134 -2.07221,5.6838 -2.07221,12.1077 0,6.6902 2.07221,12.4924 1.9242,5.9503 6.15744,5.9503 8.7329,0 8.7329,-18.4427 0,-7.9929 -1.56896,-12.9662 -1.68738,-4.8549 -7.16394,-4.8549 z"
         style="fill:#ff5555;stroke:#ff5555"
         id="path3367"
         inkscape:connector-curvature="0" />
      <path
         d="m 401.18306,1026.6455 q 0,0.3849 0,0.7401 0,4.7365 -5.44696,13.203 l 0,-7.8744 q -0.11841,0 -0.23682,0 -2.54587,0 -4.49967,-1.8058 -2.16102,-1.8354 -2.16102,-4.2629 0,-2.4274 1.9242,-4.3516 1.83539,-1.8354 3.99641,-1.8354 0.11841,0 0.23682,0 2.81229,0.1184 4.49967,1.8354 1.68737,1.6874 1.68737,4.3516 z"
         style="fill:#ff5555;stroke:#ff5555"
         id="path3369"
         inkscape:connector-curvature="0" />
      <path
         d="m 412.07697,1117.8229 -0.47365,-0.2368 0,4.4997 -1.9538,0 0,-15.66 1.9538,0 0,1.7169 q 0,4.8549 3.37475,8.1113 3.28593,3.4043 7.51917,3.6412 5.47657,-1.0954 5.47657,-4.2333 0,-3.6412 -2.81229,-5.7134 -2.9011,-2.0426 -9.08814,-5.6838 -4.97331,-2.9307 -5.44696,-9.7098 0.23682,-5.4469 4.35165,-9.2065 3.64117,-3.2859 9.47297,-3.2859 0.71048,0 1.56896,0 3.28594,0.4736 7.75601,2.7826 l 0.9769,0.5033 0,-3.9964 1.9538,0 0,13.943 -1.9538,0 -0.23683,-3.0491 q -0.35524,-3.9964 -3.40435,-6.0686 -2.78269,-1.8058 -6.06863,-1.8058 -0.35523,0 -0.71047,0 -2.19063,0 -3.64118,1.2137 -1.45054,1.3322 -1.56896,3.0195 0.47365,2.1907 2.27944,3.878 1.71698,1.717 3.28594,2.5755 1.56896,0.8289 5.09172,2.6347 8.61449,3.9076 8.61449,11.0419 0,3.4044 -2.07221,6.4239 -2.04261,3.0491 -5.56538,4.8845 -3.52276,1.8058 -7.16394,1.8058 -5.92061,0 -11.51558,-4.0261 z"
         style="font-style:normal;font-variant:normal;font-weight:normal;font-stretch:normal;font-family:'New Yorker';-inkscape-font-specification:'New Yorker';fill:#ff5555;stroke:#ff5555"
         id="path3371"
         inkscape:connector-curvature="0" />
    </g>
  </g>
</svg>
